<?xml version="1.0" encoding="iso-8859-1"?>
<!-- Uploaded to: SVG Repo, www.svgrepo.com, Generator: SVG Repo Mixer Tools -->
<!DOCTYPE svg PUBLIC "-//W3C//DTD SVG 1.1//EN" "http://www.w3.org/Graphics/SVG/1.1/DTD/svg11.dtd">
<svg fill="#000000" height="800px" width="800px" version="1.1" id="Capa_1" xmlns="http://www.w3.org/2000/svg" xmlns:xlink="http://www.w3.org/1999/xlink" 
	 viewBox="0 0 459.694 459.694" xml:space="preserve">
<g>
	<path d="M451.728,235.803l-104.552-60.348v-43.019l37.205,21.48c1.16,0.67,2.455,1.005,3.75,1.005c1.294,0,3.75-1.005,3.75-1.005
		l24.237-13.993c2.32-1.34,3.75-3.816,3.75-6.495l-0.001-55.974c0-2.68-1.43-5.155-3.75-6.495L294.953,1.005
		c-2.319-1.339-5.176-1.34-7.495-0.003c0,0-24.24,13.969-24.241,13.97c-2.321,1.34-3.751,3.816-3.751,6.496v55.999
		c0,2.68,1.43,5.155,3.75,6.495l68.961,39.814v43.021l-50.108-28.923c-2.32-1.34-5.179-1.339-7.499,0l-44.719,25.818l-20.509-11.841
		c-2.32-1.34-5.181-1.34-7.501,0l-169.64,97.966c-2.32,1.34-3.749,3.816-3.749,6.496c0,2.679,1.43,5.155,3.751,6.495l12.99,7.498
		l-12.992,7.501c-1.584,0.915-2.739,2.365-3.321,4.042L4.628,351.812c-1.177,3.398,0.224,7.153,3.338,8.951l169.659,97.927
		c1.16,0.669,2.454,1.004,3.749,1.004s2.59-0.335,3.75-1.004L451.73,304.786c2.32-1.34,3.75-3.816,3.75-6.496v-55.994
		C455.48,242.296,454.049,237.142,451.728,235.803z M395.636,134.429l0.014-38.642l9.219-5.331l0.001,38.642L395.636,134.429z
		 M291.199,16.158L397.377,77.46l-9.229,5.337L281.974,21.475L291.199,16.158z M274.466,34.46l106.184,61.328l-0.013,38.646
		L274.466,73.136V34.46z M205.592,167.007l154.677,89.303L205.61,345.582L50.952,256.312L205.592,167.007z M201.861,360.737
		c1.16,0.669,2.454,1.004,3.749,1.004s2.589-0.335,3.749-1.004l169.659-97.931c2.321-1.34,3.751-3.815,3.751-6.495
		s-1.43-5.156-3.75-6.496L244.85,172.353l33.469-19.323l53.857,31.087v26.666c0,4.142,3.357,7.5,7.5,7.5s7.5-3.358,7.5-7.5v-18.008
		l85.803,49.526L205.612,373.593l-154.66-89.291l9.243-5.336L201.861,360.737z M40.066,295.338l156.429,90.312l-19.235,55.51
		L20.829,350.868L40.066,295.338z M195.048,435.641l16.733-48.288l228.7-132.063v38.67L195.048,435.641z"/>
	<path d="M182.059,396.131c1.177-3.398-0.223-7.153-3.337-8.951l-125.19-72.276c-1.939-1.119-4.276-1.314-6.37-0.532
		c-2.097,0.782-3.734,2.458-4.467,4.573l-7.428,21.443c-1.177,3.397,0.224,7.153,3.338,8.95l125.191,72.261
		c1.153,0.666,2.448,1.004,3.749,1.004c0.885,0,1.771-0.156,2.62-0.473c2.096-0.781,3.733-2.458,4.466-4.571L182.059,396.131z
		 M163.432,404.069L51.468,339.443l2.428-7.009l111.961,64.638L163.432,404.069z"/>
</g>
</svg>