<?xml version="1.0" encoding="iso-8859-1"?>
<!-- Uploaded to: SVG Repo, www.svgrepo.com, Generator: SVG Repo Mixer Tools -->
<!DOCTYPE svg PUBLIC "-//W3C//DTD SVG 1.1//EN" "http://www.w3.org/Graphics/SVG/1.1/DTD/svg11.dtd">
<svg fill="#000000" version="1.1" id="Capa_1" xmlns="http://www.w3.org/2000/svg" xmlns:xlink="http://www.w3.org/1999/xlink" 
	 width="800px" height="800px" viewBox="0 0 121.915 121.914"
	 xml:space="preserve">
<g>
	<g>
		<path d="M82.323,35.52v16.446H39.591V35.52c-3.749,0.631-6.608,3.883-6.608,7.811v70.653c0,4.38,3.55,7.93,7.93,7.93H81
			c4.381,0,7.931-3.55,7.931-7.93V43.331C88.93,39.402,86.07,36.151,82.323,35.52z M52.052,114.143h-7.544V106.6h7.544V114.143z
			 M52.052,100.482h-7.544v-7.541h7.544V100.482z M52.052,87.427h-7.544v-7.542h7.544V87.427z M64.622,114.143h-7.542V106.6h7.542
			V114.143z M64.622,100.482h-7.542v-7.541h7.542V100.482z M64.622,87.427h-7.542v-7.542h7.542V87.427z M77.403,114.143h-7.544
			V106.6h7.544V114.143z M77.403,100.482h-7.544v-7.541h7.544V100.482z M77.403,87.427h-7.544v-7.542h7.544V87.427z M81.808,75.133
			H39.224V58.1h42.584V75.133z"/>
		<path d="M63.602,0.785c0-0.269,0.027-0.531,0.078-0.784H47.139c-2.165,0-3.919,1.755-3.919,3.92v45.221h20.383L63.602,0.785
			L63.602,0.785z"/>
		<path d="M71.833,49.142h6.859V3.92c0-2.165-1.754-3.92-3.919-3.92h-3.019c0.051,0.253,0.078,0.515,0.078,0.784V49.142
			L71.833,49.142z"/>
	</g>
</g>
</svg>